:version 1.10
:name ASF
:units
  mass 1
  length 1
  angle deg
:documentation
  ASF file generated by Kaydara
:root
  axis xyz
  order  tx ty tz rx ry rz
  position 0 0 0
  orientation 0 0 0
:bonedata
  begin
    id 1
    name SpineDummy
    direction 0.999998 -0.00179978 1.38929e-006
    length 3.60008
    axis 0 0 0 xyz
  end
  begin
    id 2
    name Spine
    direction 0.964365 0.262802 0.0305839
    length 8.13928
    axis 1.33928 -1.75354 15.2838 xyz
    dof rx ry rz
  end
  begin
    id 3
    name Spine1
    direction 0.811168 0.572065 0.12144
    length 7.14954
    axis 2.2224 -6.9761 35.2157 xyz
    dof rx ry rz
  end
  begin
    id 4
    name Neck
    direction 0 0 0
    length 0
    axis 2.2224 -6.9761 35.2157 xyz
    dof rx ry rz
  end
  begin
    id 5
    name HeadDummy
    direction 0.810939 0.572387 0.121455
    length 3.55534
    axis 2.2224 -6.9761 35.2157 xyz
  end
  begin
    id 6
    name Head
    direction 0.998226 -0.000232542 0.0595419
    length 7.35666
    axis -3.03688 -3.41352 -0.0133467 xyz
    dof rx ry rz
  end
  begin
    id 7
    name R_ClavicleDummy
    direction 0.531669 -0.194489 -0.824319
    length 2.49392
    axis 2.2224 -6.9761 35.2157 xyz
  end
  begin
    id 8
    name R_Clavicle
    direction -0.155119 0.0480802 -0.986725
    length 4.485
    axis -54.2764 80.6538 162.779 xyz
    dof rx ry rz
  end
  begin
    id 9
    name R_UpperArm
    direction -0.955567 0.200068 -0.216484
    length 10.1122
    axis -72.9943 12.5026 168.175 xyz
    dof rx ry rz
  end
  begin
    id 10
    name R_Forearm
    direction -0.61433 0.385743 0.688332
    length 9.39148
    axis -117.015 -43.4982 147.875 xyz
    dof rx ry rz
  end
  begin
    id 11
    name R_Hand
    direction -0.699429 0.0170333 0.714499
    length 3.66324
    axis -45.0303 -36.7097 175.478 xyz
    dof rx ry rz
  end
  begin
    id 12
    name L_ClavicleDummy
    direction 0.40287 -0.36502 0.839319
    length 2.49392
    axis 2.2224 -6.9761 35.2157 xyz
  end
  begin
    id 13
    name L_Clavicle
    direction -0.231271 -0.0726419 0.970174
    length 4.485
    axis 18.4357 -75.9711 -162.563 xyz
    dof rx ry rz
  end
  begin
    id 14
    name L_UpperArm
    direction -0.917494 0.144359 0.370629
    length 10.1122
    axis 56.0417 -21.7544 171.058 xyz
    dof rx ry rz
  end
  begin
    id 15
    name L_Forearm
    direction -0.496786 0.615074 -0.612281
    length 9.39148
    axis 89.8094 37.7546 128.927 xyz
    dof rx ry rz
  end
  begin
    id 16
    name L_Hand
    direction -0.409932 0.64962 -0.640274
    length 3.66324
    axis -0.424369 32.133 128.52 xyz
    dof rx ry rz
  end
  begin
    id 17
    name L_ThighDummy
    direction -1.84081e-006 1.87549e-006 1
    length 3.13049
    axis 0 0 0 xyz
  end
  begin
    id 18
    name L_Thigh
    direction -0.947739 0.307978 0.083308
    length 17.9961
    axis 173.219 -4.77873 161.998 xyz
    dof rx ry rz
  end
  begin
    id 19
    name L_Calf
    direction -0.728814 -0.684427 0.0197583
    length 13.3367
    axis 167.331 -1.13214 -136.799 xyz
    dof rx ry rz
  end
  begin
    id 20
    name L_Foot
    direction -0.9028 0.418719 0.0981191
    length 5.8674
    axis 163.436 11.5135 -155.37 xyz
    dof rx ry rz
  end
  begin
    id 21
    name L_Toe0
    direction -0.35341 0.886259 0.299411
    length 4.75286
    axis 169.316 -17.4222 111.74 xyz
    dof rx ry rz
  end
  begin
    id 22
    name R_ThighDummy
    direction 9.32778e-007 -8.82053e-007 -1
    length 3.13049
    axis 0 0 0 xyz
  end
  begin
    id 23
    name R_Thigh
    direction -0.925064 0.37528 -0.0585023
    length 17.9961
    axis -178.698 3.35385 157.919 xyz
    dof rx ry rz
  end
  begin
    id 24
    name R_Calf
    direction -0.68969 -0.718776 -0.0876886
    length 13.3367
    axis -160.504 5.03065 -133.817 xyz
    dof rx ry rz
  end
  begin
    id 25
    name R_Foot
    direction -0.857405 0.418858 -0.299022
    length 5.8674
    axis -161.328 4.38911 -154.413 xyz
    dof rx ry rz
  end
  begin
    id 26
    name R_Toe0
    direction -0.100745 0.952789 -0.286433
    length 4.75286
    axis 171.683 16.6445 96.0359 xyz
    dof rx ry rz
  end
:hierarchy
  begin
    root SpineDummy L_ThighDummy R_ThighDummy
    SpineDummy Spine
    Spine Spine1
    Spine1 Neck
    Neck HeadDummy R_ClavicleDummy L_ClavicleDummy
    HeadDummy Head
    R_ClavicleDummy R_Clavicle
    R_Clavicle R_UpperArm
    R_UpperArm R_Forearm
    R_Forearm R_Hand
    L_ClavicleDummy L_Clavicle
    L_Clavicle L_UpperArm
    L_UpperArm L_Forearm
    L_Forearm L_Hand
    L_ThighDummy L_Thigh
    L_Thigh L_Calf
    L_Calf L_Foot
    L_Foot L_Toe0
    R_ThighDummy R_Thigh
    R_Thigh R_Calf
    R_Calf R_Foot
    R_Foot R_Toe0
  end

:SAMPLES-PER-SECOND 30
:FULLY-SPECIFIED
:DEGREES
442
root  8.96367 29.3304 22.3666 -23.1796 6.32903 92.0162
Spine  -0.464981 2.45421 -0.384886
Spine1  -2.49575 17.4392 -10.865
Neck  3.97569e-016 0 -2.38542e-015
Head  -23.9068 -13.361 0.596278
R_Clavicle  0.010515 -9.88853 -1.57491
R_UpperArm  12.7351 -2.1645 41.3533
R_Forearm  -14.6298 42.0632 -48.5366
R_Hand  1.18476 2.45523 8.13942
L_Clavicle  0.0215915 6.94483 -2.66292
L_UpperArm  -3.5258 21.0361 13.4692
L_Forearm  6.13699 -29.7907 -41.393
L_Hand  -0.576563 7.43016 -4.87152
L_Thigh  10.378 9.45233 1.62999
L_Calf  -0.551764 0.55635 -4.39896
L_Foot  3.51607 0.600607 15.6739
L_Toe0  0.262016 0.0309565 -5.99613
R_Thigh  -14.641 -18.7393 21.1005
R_Calf  0.430788 2.03925 6.36181
R_Foot  1.39197 1.86263 -8.92859
R_Toe0  -0.771637 -0.320559 -16.7297
443
root  8.41292 28.268 22.935 -26.6931 7.62419 91.4705
Spine  -1.40723 -0.0630679 -2.22663
Spine1  -2.30731 20.8751 -6.66535
Neck  3.97569e-016 0 -2.38542e-015
Head  -15.0449 -11.6095 -4.9477
R_Clavicle  0.262765 -16.0748 -0.6362
R_UpperArm  19.6844 -4.56243 59.4379
R_Forearm  -6.23846 42.0304 -48.4624
R_Hand  0.858819 5.29012 -0.856735
L_Clavicle  -0.137152 9.41328 -2.17382
L_UpperArm  1.30711 20.3323 16.1941
L_Forearm  5.5207 -26.0194 -34.3271
L_Hand  -0.769704 8.04586 -6.24495
L_Thigh  12.9737 10.0365 -0.431198
L_Calf  -6.63686 0.132962 -1.32158
L_Foot  2.29924 -2.74496 16.3024
L_Toe0  -2.44238 0.143503 -4.60981
R_Thigh  -18.538 -18.3462 25.0203
R_Calf  -8.01769 0.615032 1.94789
R_Foot  1.16355 2.05014 -6.19773
R_Toe0  4.15501 -0.517391 -13.864
444
root  7.86088 27.0556 23.1549 -30.5718 7.35072 89.1105
Spine  -3.21896 -4.24367 -0.595531
Spine1  -2.78199 25.7817 -3.15758
Neck  3.97569e-016 0 -2.38542e-015
Head  -3.20845 -8.63554 -11.3492
R_Clavicle  0.382427 -18.9468 0.877536
R_UpperArm  25.1207 -5.93851 66.8389
R_Forearm  11.4101 33.5439 -33.4186
R_Hand  -0.200814 3.75752 -9.27356
L_Clavicle  -0.36679 13.1932 -0.263603
L_UpperArm  -0.0680327 20.2913 22.4593
L_Forearm  2.97988 -16.8976 -20.5526
L_Hand  -0.901162 7.93286 -7.39935
L_Thigh  13.9332 12.6266 -6.3955
L_Calf  -0.0892549 -0.38269 2.45896
L_Foot  -1.79693 -13.4609 21.1248
L_Toe0  -3.94366 0.275945 -2.17678
R_Thigh  -17.5306 -17.6291 26.1585
R_Calf  -6.94714 -1.38621 -4.13987
R_Foot  0.952311 3.74866 2.19676
R_Toe0  2.36602 -0.427726 -14.9122
445
root  7.45852 25.8713 23.0302 -33.859 6.34014 87.3097
Spine  -5.66771 -8.35443 3.96103
Spine1  -4.9719 30.4278 -5.01339
Neck  3.97569e-016 0 -2.38542e-015
Head  9.54604 -5.25816 -15.5085
R_Clavicle  0.446426 -18.9622 2.9535
R_UpperArm  30.6804 -7.19283 67.0755
R_Forearm  27.2262 16.8802 -14.6075
R_Hand  -0.772441 0.0795735 -12.9782
L_Clavicle  -0.455415 16.8229 2.59653
L_UpperArm  -5.40282 21.7288 28.3276
L_Forearm  -2.05018 -0.356016 -0.250047
L_Hand  -0.985496 7.04666 -8.71324
L_Thigh  11.5777 15.7478 -12.3915
L_Calf  8.50079 -0.682071 4.66611
L_Foot  -5.2739 -21.091 31.3125
L_Toe0  4.17636 -0.277176 -2.13689
R_Thigh  -15.8306 -16.9861 26.9159
R_Calf  -1.3837 -2.90081 -8.81575
R_Foot  3.45759 11.8962 6.53182
R_Toe0  -1.96605 -0.255874 -17.4289
446
root  7.251 25.2539 22.4633 -35.6454 5.87089 87.6555
Spine  -7.61298 -10.4783 6.85589
Spine1  -7.75282 32.4011 -9.52783
Neck  3.97569e-016 0 -2.38542e-015
Head  19.6222 -2.66404 -16.7749
R_Clavicle  0.509943 -18.4542 4.6423
R_UpperArm  39.6167 -9.7493 67.0958
R_Forearm  36.3063 3.42301 -2.85046
R_Hand  -0.851128 -1.74683 -11.666
L_Clavicle  -0.412 18.9517 4.62469
L_UpperArm  -13.1889 21.43 31.8519
L_Forearm  -6.01671 21.5759 25.2412
L_Hand  -0.938226 6.5778 -8.62347
L_Thigh  7.85043 18.5307 -15.7244
L_Calf  11.0548 -1.02045 7.14854
L_Foot  -6.03941 -22.0879 37.5775
L_Toe0  1.25452 0.0370102 -5.60076
R_Thigh  -16.3036 -15.5663 27.8958
R_Calf  -0.557529 -3.69639 -11.3465
R_Foot  6.96777 21.2595 6.74418
R_Toe0  -1.71529 -0.271536 -17.2819
447
root  7.13938 25.5508 21.2745 -35.6291 5.54244 88.9303
Spine  -8.41034 -11.5519 6.18261
Spine1  -8.95554 31.8649 -11.3827
Neck  3.97569e-016 0 -2.38542e-015
Head  25.1471 -0.873936 -16.7491
R_Clavicle  0.539701 -18.0032 5.13927
R_UpperArm  47.2512 -11.8965 69.9089
R_Forearm  42.1814 0.746546 -0.621443
R_Hand  -0.876642 -3.21436 -8.6576
L_Clavicle  -0.399961 19.0422 5.09206
L_UpperArm  -27.9049 19.2375 35.9016
L_Forearm  -2.86104 39.1114 51.3857
L_Hand  -0.626821 6.92246 -5.51483
L_Thigh  5.84899 21.593 -18.0497
L_Calf  9.64302 -1.8507 13.295
L_Foot  -6.09684 -22.3371 32.5902
L_Toe0  1.45547 -0.0572901 -5.37208
R_Thigh  -15.1444 -12.8279 26.0195
R_Calf  0.334568 -3.87278 -11.9208
R_Foot  7.24489 21.2131 9.9085
R_Toe0  -1.75235 -0.272151 -17.303
